<?xml version="1.0" encoding="utf-8"?>
<!-- Generator: Adobe Illustrator 18.0.0, SVG Export Plug-In . SVG Version: 6.00 Build 0)  -->
<!DOCTYPE svg PUBLIC "-//W3C//DTD SVG 1.1//EN" "http://www.w3.org/Graphics/SVG/1.1/DTD/svg11.dtd">
<svg version="1.1" id="Layer_1" xmlns="http://www.w3.org/2000/svg" xmlns:xlink="http://www.w3.org/1999/xlink" x="0px" y="0px"
	 viewBox="0 0 64 64" enable-background="new 0 0 64 64" xml:space="preserve">
<g>
	<g>
		<g>
			<path fill="#E5E5E5" d="M32,0c17.7,0,32,14.3,32,32S49.7,64,32,64S0,49.7,0,32S14.3,0,32,0z"/>
		</g>
	</g>
	<g>
		<g>
			<rect x="43" y="47" fill="#FF6A4D" width="8" height="7"/>
		</g>
	</g>
	<g>
		<g>
			<path fill="#E84B4B" d="M51,26.6V37H40l3.7-3.5l-9.3-9l-3.4,3.2L14,13.7l3.3-3.7l13.3,11.1l3.7-3.5l13,12.4
				C47.3,30.1,51,26.6,51,26.6z"/>
		</g>
	</g>
	<g>
		<g>
			<rect x="33" y="41" fill="#F4462F" width="8" height="13"/>
		</g>
	</g>
	<g>
		<g>
			<rect x="23" y="36" fill="#F23030" width="8" height="18"/>
		</g>
	</g>
	<g>
		<g>
			<rect x="13" y="27" fill="#CE1717" width="8" height="27"/>
		</g>
	</g>
</g>
</svg>
