<?xml version='1.0' encoding='iso-8859-1'?>
<!-- Uploaded to: SVG Repo, www.svgrepo.com, Generator: SVG Repo Mixer Tools -->
<svg fill="#000000" height="800px" width="800px" version="1.1" xmlns="http://www.w3.org/2000/svg" viewBox="0 0 297.991 297.991" xmlns:xlink="http://www.w3.org/1999/xlink" enable-background="new 0 0 297.991 297.991">
  <g>
    <path d="m297.553,74.917c0,0-26.938,7.798-88.522,7.798-24.04,0-45.555,9.563-60.035,24.627-14.481-15.064-35.995-24.627-60.035-24.627-61.584,0-88.522-7.798-88.522-7.798s-4.253,57.773 13.746,100.557c11.491,27.314 40.059,47.6 74.776,47.6 24.04,0 45.555-9.563 60.035-24.627 14.48,15.064 35.995,24.627 60.035,24.627 34.718,0 63.285-20.285 74.776-47.6 17.999-42.783 13.746-100.557 13.746-100.557zm-214.807,90.775c-18.133,0-32.833-16.833-32.833-16.833s14.7-15.833 32.833-15.833c18.133,0 32.833,15.833 32.833,15.833s-14.701,16.833-32.833,16.833zm132.5,0c-18.133,0-32.833-16.833-32.833-16.833s14.7-15.833 32.833-15.833c18.133,0 32.833,15.833 32.833,15.833s-14.701,16.833-32.833,16.833z"/>
  </g>
</svg>