<?xml version="1.0" encoding="utf-8"?>
<!-- Generator: Adobe Illustrator 18.0.0, SVG Export Plug-In . SVG Version: 6.00 Build 0)  -->
<!DOCTYPE svg PUBLIC "-//W3C//DTD SVG 1.1//EN" "http://www.w3.org/Graphics/SVG/1.1/DTD/svg11.dtd">
<svg version="1.1" id="Layer_1" xmlns="http://www.w3.org/2000/svg" xmlns:xlink="http://www.w3.org/1999/xlink" x="0px" y="0px"
	 viewBox="0 0 64 64" enable-background="new 0 0 64 64" xml:space="preserve">
<g>
	<g>
		<g>
			<path fill="#80E0F9" d="M32,0c17.7,0,32,14.3,32,32S49.7,64,32,64S0,49.7,0,32S14.3,0,32,0z"/>
		</g>
	</g>
	<g>
		<g>
			<polygon fill="#FFE2C0" points="31.4,54.5 21.6,26.8 40.8,26.8 			"/>
		</g>
	</g>
	<g>
		<g>
			<g>
				<polygon fill="#FFF2D7" points="40.2,28.3 40.6,27.3 40,26.8 38.6,26.8 				"/>
			</g>
		</g>
		<g>
			<g>
				<path fill="#FFF2D7" d="M32.7,49.4l0.6-0.6l0.7-2.1l-2,2l-2.3-2.3l2.3-2.3l2.2,2.1l0.4-1l-1.8-1.8l2.1-2.1l0.7,0.7l0.4-1
					l-0.4-0.4l0.7-0.7l0.7-2.1L34.8,40l-2.1-2.1l2.3-2.3l2,2l0.4-1L35.8,35l2.5-2.4l0.4,0.4l0.4-1l-0.1-0.1l0.1-0.1l0.7-2.1
					l-1.6,1.5l-2.3-2.3l2.2-2.1h-1.4l-1.5,1.4l-1.5-1.4h-1.4l2.2,2.1L32,31.3l-2.5-2.4l2.2-2.1h-1.4l-1.5,1.4l-1.5-1.4h-1.4l2.2,2.1
					l-2.3,2.3l-2.5-2.4l2.1-2H24l-1.4,1.3l-0.8-0.8l0.8,2.2l0,0l2.5,2.4l-1.2,1.2l0.4,1l1.6-1.5l2.5,2.4L26.1,37l-1.4-1.3l1.1,3
					l0.3-0.3l2.3,2.3L27,42.1l0.4,1l1.8-1.7l2.1,2.1L29,45.7l-1-1l0.9,2.5l0.1-0.1l2.3,2.3L30,50.6l0.4,1l1.6-1.6l0.7,0.6l0.4-1
					L32.7,49.4z M35.2,29.6l2.3,2.3L35,34.3L32.7,32L35.2,29.6z M34.3,35L32,37.2L29.7,35l2.3-2.3L34.3,35z M26.5,31.9l2.3-2.3
					l2.5,2.4L29,34.3L26.5,31.9z M26.8,37.7l2.1-2.1l2.3,2.3L29.2,40L26.8,37.7z M29.9,40.7l2.1-2.1l2.1,2.1L32,42.8L29.9,40.7z"/>
			</g>
		</g>
	</g>
	<g>
		<g>
			<path fill="#FF8FB7" d="M43,22.5c0-0.3,0-0.5,0-0.8c0-6.7-5.4-12.2-12.1-12.2s-12.1,5.6-12.1,12.2c0,0.3,0,0.5,0,0.8
				c-0.8,0.3-1.5,1.1-1.5,2v0.1c0,1.2,1,2.1,2.1,2.1h0.7c0.2,1.2,1.3,2.1,2.7,2.1c1,0,1.9-0.5,2.4-1.2c0.5,1.3,2.5,2.3,4.9,2.3
				c1.9,0,3.5-0.6,4.3-1.5c0.4,0.6,1.1,0.9,1.9,0.9c0.6,0,1.2-0.2,1.6-0.6c0.4,0.2,1,0.4,1.5,0.4c1.6,0,2.8-1.1,2.8-2.4c0,0,0,0,0,0
				c1.1-0.1,1.9-1,1.9-2.1v-0.1C44.5,23.6,43.9,22.8,43,22.5z"/>
		</g>
	</g>
	<g>
		<g>
			
				<ellipse transform="matrix(0.8122 -0.5834 0.5834 0.8122 -3.9121 17.5988)" fill="#FFFFFF" cx="25.4" cy="14.9" rx="2" ry="1.1"/>
		</g>
	</g>
</g>
</svg>
