<svg width="24" height="24" viewBox="0 0 24 24" fill="none" xmlns="http://www.w3.org/2000/svg">
<path d="M7.25 12C7.05109 12 6.86032 12.079 6.71967 12.2197C6.57902 12.3603 6.5 12.5511 6.5 12.75C6.5 12.9489 6.57902 13.1397 6.71967 13.2803C6.86032 13.421 7.05109 13.5 7.25 13.5H7.75C7.94891 13.5 8.13968 13.421 8.28033 13.2803C8.42098 13.1397 8.5 12.9489 8.5 12.75C8.5 12.5511 8.42098 12.3603 8.28033 12.2197C8.13968 12.079 7.94891 12 7.75 12H7.25ZM6.5 9.25C6.5 9.05109 6.57902 8.86032 6.71967 8.71967C6.86032 8.57902 7.05109 8.5 7.25 8.5H7.75C7.94891 8.5 8.13968 8.57902 8.28033 8.71967C8.42098 8.86032 8.5 9.05109 8.5 9.25C8.5 9.44891 8.42098 9.63968 8.28033 9.78033C8.13968 9.92098 7.94891 10 7.75 10H7.25C7.05109 10 6.86032 9.92098 6.71967 9.78033C6.57902 9.63968 6.5 9.44891 6.5 9.25ZM7.25 5C7.05109 5 6.86032 5.07902 6.71967 5.21967C6.57902 5.36032 6.5 5.55109 6.5 5.75C6.5 5.94891 6.57902 6.13968 6.71967 6.28033C6.86032 6.42098 7.05109 6.5 7.25 6.5H7.75C7.94891 6.5 8.13968 6.42098 8.28033 6.28033C8.42098 6.13968 8.5 5.94891 8.5 5.75C8.5 5.55109 8.42098 5.36032 8.28033 5.21967C8.13968 5.07902 7.94891 5 7.75 5H7.25ZM10 12.75C10 12.5511 10.079 12.3603 10.2197 12.2197C10.3603 12.079 10.5511 12 10.75 12H11.25C11.4489 12 11.6397 12.079 11.7803 12.2197C11.921 12.3603 12 12.5511 12 12.75C12 12.9489 11.921 13.1397 11.7803 13.2803C11.6397 13.421 11.4489 13.5 11.25 13.5H10.75C10.5511 13.5 10.3603 13.421 10.2197 13.2803C10.079 13.1397 10 12.9489 10 12.75ZM10.75 8.5C10.5511 8.5 10.3603 8.57902 10.2197 8.71967C10.079 8.86032 10 9.05109 10 9.25C10 9.44891 10.079 9.63968 10.2197 9.78033C10.3603 9.92098 10.5511 10 10.75 10H11.25C11.4489 10 11.6397 9.92098 11.7803 9.78033C11.921 9.63968 12 9.44891 12 9.25C12 9.05109 11.921 8.86032 11.7803 8.71967C11.6397 8.57902 11.4489 8.5 11.25 8.5H10.75ZM10 5.75C10 5.55109 10.079 5.36032 10.2197 5.21967C10.3603 5.07902 10.5511 5 10.75 5H11.25C11.4489 5 11.6397 5.07902 11.7803 5.21967C11.921 5.36032 12 5.55109 12 5.75C12 5.94891 11.921 6.13968 11.7803 6.28033C11.6397 6.42098 11.4489 6.5 11.25 6.5H10.75C10.5511 6.5 10.3603 6.42098 10.2197 6.28033C10.079 6.13968 10 5.94891 10 5.75ZM14.25 12C14.0511 12 13.8603 12.079 13.7197 12.2197C13.579 12.3603 13.5 12.5511 13.5 12.75C13.5 12.9489 13.579 13.1397 13.7197 13.2803C13.8603 13.421 14.0511 13.5 14.25 13.5H14.75C14.9489 13.5 15.1397 13.421 15.2803 13.2803C15.421 13.1397 15.5 12.9489 15.5 12.75C15.5 12.5511 15.421 12.3603 15.2803 12.2197C15.1397 12.079 14.9489 12 14.75 12H14.25ZM13.5 9.25C13.5 9.05109 13.579 8.86032 13.7197 8.71967C13.8603 8.57902 14.0511 8.5 14.25 8.5H14.75C14.9489 8.5 15.1397 8.57902 15.2803 8.71967C15.421 8.86032 15.5 9.05109 15.5 9.25C15.5 9.44891 15.421 9.63968 15.2803 9.78033C15.1397 9.92098 14.9489 10 14.75 10H14.25C14.0511 10 13.8603 9.92098 13.7197 9.78033C13.579 9.63968 13.5 9.44891 13.5 9.25ZM14.25 5C14.0511 5 13.8603 5.07902 13.7197 5.21967C13.579 5.36032 13.5 5.55109 13.5 5.75C13.5 5.94891 13.579 6.13968 13.7197 6.28033C13.8603 6.42098 14.0511 6.5 14.25 6.5H14.75C14.9489 6.5 15.1397 6.42098 15.2803 6.28033C15.421 6.13968 15.5 5.94891 15.5 5.75C15.5 5.55109 15.421 5.36032 15.2803 5.21967C15.1397 5.07902 14.9489 5 14.75 5H14.25Z" fill="black"/>
<path fill-rule="evenodd" clip-rule="evenodd" d="M3 20C3 20.5304 3.21071 21.0391 3.58579 21.4142C3.96086 21.7893 4.46957 22 5 22H8.75C8.94891 22 9.13968 21.921 9.28033 21.7803C9.42098 21.6397 9.5 21.4489 9.5 21.25V19H12.5V21.25C12.5 21.664 12.836 22 13.25 22H17C17.092 22 17.183 21.994 17.272 21.982C17.3265 21.9941 17.3822 22.0001 17.438 22H21.5C22.0304 22 22.5391 21.7893 22.9142 21.4142C23.2893 21.0391 23.5 20.5304 23.5 20V12.375C23.5 12.0645 23.4277 11.7583 23.2889 11.4806C23.15 11.2029 22.9484 10.9613 22.7 10.775L21.7 10.025C21.6212 9.9659 21.5315 9.92291 21.4361 9.89847C21.3407 9.87402 21.2414 9.86861 21.1439 9.88254C21.0464 9.89647 20.9526 9.92946 20.8679 9.97964C20.7831 10.0298 20.7091 10.0962 20.65 10.175C20.5909 10.2538 20.5479 10.3435 20.5235 10.4389C20.499 10.5343 20.4936 10.6336 20.5075 10.7311C20.5215 10.8286 20.5545 10.9224 20.6046 11.0071C20.6548 11.0919 20.7212 11.1659 20.8 11.225L21.8 11.975C21.8621 12.0216 21.9125 12.082 21.9472 12.1514C21.9819 12.2208 22 12.2974 22 12.375V20C22 20.1326 21.9473 20.2598 21.8536 20.3536C21.7598 20.4473 21.6326 20.5 21.5 20.5H18.937C18.978 20.34 19 20.173 19 20V3C19 2.46957 18.7893 1.96086 18.4142 1.58579C18.0391 1.21071 17.5304 1 17 1H5C4.46957 1 3.96086 1.21071 3.58579 1.58579C3.21071 1.96086 3 2.46957 3 3V20ZM5 20.5C4.86739 20.5 4.74021 20.4473 4.64645 20.3536C4.55268 20.2598 4.5 20.1326 4.5 20V3C4.5 2.86739 4.55268 2.74021 4.64645 2.64645C4.74021 2.55268 4.86739 2.5 5 2.5H17C17.1326 2.5 17.2598 2.55268 17.3536 2.64645C17.4473 2.74021 17.5 2.86739 17.5 3V20C17.5 20.1326 17.4473 20.2598 17.3536 20.3536C17.2598 20.4473 17.1326 20.5 17 20.5H14V18.25C14 18.0511 13.921 17.8603 13.7803 17.7197C13.6397 17.579 13.4489 17.5 13.25 17.5H8.75C8.55109 17.5 8.36032 17.579 8.21967 17.7197C8.07902 17.8603 8 18.0511 8 18.25V20.5H5Z" fill="black"/>
</svg>
